<svg width="19" height="17" viewBox="0 0 19 17" fill="none" xmlns="http://www.w3.org/2000/svg">
<path d="M18.5 9.5H15.5C15.1022 9.5 14.7206 9.65804 14.4393 9.93934C14.158 10.2206 14 10.6022 14 11V14.75C14 15.1478 14.158 15.5294 14.4393 15.8107C14.7206 16.092 15.1022 16.25 15.5 16.25H18.5V9.5ZM18.5 9.5C18.5 8.3181 18.2672 7.14778 17.8149 6.05585C17.3626 4.96392 16.6997 3.97177 15.864 3.13604C15.0282 2.30031 14.0361 1.63738 12.9442 1.18508C11.8522 0.732792 10.6819 0.5 9.5 0.5C8.3181 0.5 7.14778 0.732792 6.05585 1.18508C4.96392 1.63738 3.97177 2.30031 3.13604 3.13604C2.30031 3.97177 1.63738 4.96392 1.18508 6.05585C0.732792 7.14778 0.5 8.3181 0.5 9.5M0.5 9.5V14.75C0.5 15.1478 0.658035 15.5294 0.93934 15.8107C1.22064 16.092 1.60218 16.25 2 16.25H3.5C3.89782 16.25 4.27936 16.092 4.56066 15.8107C4.84196 15.5294 5 15.1478 5 14.75V11C5 10.6022 4.84196 10.2206 4.56066 9.93934C4.27936 9.65804 3.89782 9.5 3.5 9.5H0.5Z" stroke="black" stroke-linecap="round" stroke-linejoin="round"/>
</svg>
